<?xml version="1.0" standalone="no"?>
<!DOCTYPE svg PUBLIC "-//W3C//DTD SVG 20010904//EN"
 "http://www.w3.org/TR/2001/REC-SVG-20010904/DTD/svg10.dtd">
<svg version="1.0" xmlns="http://www.w3.org/2000/svg"
 width="260.000000pt" height="260.000000pt" viewBox="0 0 260.000000 260.000000"
 preserveAspectRatio="xMidYMid meet">
<metadata>
Created by potrace 1.14, written by Peter Selinger 2001-2017
</metadata>
<g transform="translate(0.000000,260.000000) scale(0.100000,-0.100000)"
fill="#000000" stroke="none">
<path d="M580 2593 c-205 -36 -401 -176 -496 -356 -84 -159 -83 -154 -83 -932
0 -800 0 -798 99 -970 34 -60 138 -172 196 -212 60 -41 156 -84 232 -102 72
-18 125 -19 761 -20 777 -1 771 -1 930 76 78 37 109 59 176 127 65 65 90 99
128 176 79 159 78 144 74 949 -3 778 -1 752 -68 884 -93 184 -242 305 -444
363 l-80 23 -700 -1 c-385 0 -711 -3 -725 -5z"/>
</g>
</svg>
